<svg width="32" height="32" viewBox="0 0 32 32" fill="none" xmlns="http://www.w3.org/2000/svg">
<path d="M4.62413 13.5058C2.52695 24.9491 2.52695 25.3124 4.24282 26.7655C6.2129 28.4608 12.9493 28.4002 15.4278 26.6444C17.5249 25.1912 18.796 21.9217 18.9867 17.7441C19.1773 13.748 17.3343 12.2343 12.8857 12.6581C10.3437 12.8398 9.89885 12.7793 10.1531 11.9316C10.2802 11.3867 10.5979 9.87301 10.8521 8.54099C11.0428 7.20897 11.3605 5.63476 11.5511 5.02929C11.869 4.18164 11.4877 4 9.13624 4H6.34L4.62413 13.5058ZM13.3306 19.5605C13.267 22.6483 12.1231 24.1014 9.9624 23.8593C8.43718 23.6776 8.31007 23.496 8.56428 21.2557C8.88204 17.7441 9.64464 16.5936 11.6783 16.8359C13.267 17.0175 13.3941 17.2597 13.3306 19.5605Z" fill="#F33F61"/>
<path d="M23.7907 5.28389C22.2363 7.36716 23.0446 9 25.5938 9C28.0808 9 29.2621 7.93021 28.9512 5.79063C28.8268 4.49563 28.4538 4.1578 26.7751 4.04518C25.2207 3.87627 24.5989 4.1578 23.7907 5.28389Z" fill="#F33F61"/>
<path d="M22.7608 12.5654C22.015 12.875 21.4413 13.4324 21.4413 13.742C21.4413 14.0517 21.2691 14.7328 21.0971 15.2902C20.8675 15.9714 21.0397 16.281 21.6708 16.281C23.3919 16.281 23.3919 17.9531 21.6708 26.685C21.4413 28.0474 21.556 28.1093 23.8509 27.9235L26.2605 27.7377L27.2932 21.545C28.4406 14.6709 28.2685 13.3705 26.2031 12.5034C24.5393 11.8222 24.4246 11.8222 22.7608 12.5654Z" fill="#F33F61"/>
</svg>
